<svg xmlns="http://www.w3.org/2000/svg" viewBox="0 0 41.31 31.12"><g id="Layer_2" data-name="Layer 2"><g id="Layer_1-2" data-name="Layer 1"><path fill="#d9a41e" d="M6.47,20.91a1.88,1.88,0,0,0-.72-.13v0a2.14,2.14,0,0,1-.44.83c.34,0,.74-.12,1.06-.13a5.09,5.09,0,0,1,1.45.17A8.18,8.18,0,0,0,6.47,20.91Z"/><path fill="#d9a41e" d="M40.72,8.07H36.34a.57.57,0,0,0-.43.19l-3.2-5.21A.19.19,0,0,0,32.65,3a5,5,0,0,0-3.13-1.3h-.73V0H26.91V1.68H14.4V0H12.52V1.68H12A5.07,5.07,0,0,0,8.87,3L8.81,3,5.43,8.31A.56.56,0,0,0,5,8.07H.58A.58.58,0,0,0,0,8.65V11a.58.58,0,0,0,.58.58H3.14A9.17,9.17,0,0,0,.7,17.51v.65a2,2,0,0,1,1.3-1l.11,0a3.07,3.07,0,0,1,2.85-2,2.24,2.24,0,0,1,2,1.37,5.79,5.79,0,0,1,.93.25c1-1.6,4.06-1.21,4.1,1.15a8.86,8.86,0,0,1-.27,2.86,2.26,2.26,0,0,1-2.51,1.59c.47.38.89.82,1.37,1.22a2.22,2.22,0,0,1,0,3.11,2.26,2.26,0,0,1-3.1,0c-.3-.25-.55-.53-.83-.8l-.18-.05a18.52,18.52,0,0,1-2.68,0,2.19,2.19,0,0,1-1.53-2.69,2.08,2.08,0,0,1,.51-.91,2,2,0,0,1-1-.95,2.11,2.11,0,0,1-1-1.06v3a5.54,5.54,0,0,0,.88,3v2.6A2.25,2.25,0,0,0,3.8,31.12H6.5a2.25,2.25,0,0,0,2.22-2.27v-.43H32.59v.43a2.25,2.25,0,0,0,2.22,2.27h2.7a2.25,2.25,0,0,0,2.22-2.27v-2.6a5.46,5.46,0,0,0,.88-3V17.51a9.17,9.17,0,0,0-2.44-5.94h2.56a.58.58,0,0,0,.58-.58V8.65A.58.58,0,0,0,40.72,8.07ZM39.41,18.18a2.23,2.23,0,0,1-1.15,3.39,1.89,1.89,0,0,1-.34.09,1.14,1.14,0,0,1,.16.15,2.19,2.19,0,0,1,0,3.1,5.42,5.42,0,0,1-3.29,1.16l-.68,0-.18,0a2.26,2.26,0,0,1-4.05-.78,1.69,1.69,0,0,1-.8.76c-2.72,1.19-5.54.87-8.39.32L18.62,26a1.82,1.82,0,0,1-1.58.68c-1.61-.2-3.17-.26-4.53-1.25a2.2,2.2,0,0,1,1.43-4.07l.41-.17a3.82,3.82,0,0,1,.88-.13,9.62,9.62,0,0,1,2.14.24c1.12.19,2.24.43,3.36.66,1.8.37,4.35,1.14,6.14.35a2.25,2.25,0,0,1,3,.79,2,2,0,0,1,.26.79,3.54,3.54,0,0,1,2.74-2,14,14,0,0,1,1.82-.17l.32,0h.06l-.9-.14c-.49-.07-1.37-.23-1.64-.26a4.88,4.88,0,0,1-.64,0,2.28,2.28,0,0,1-2.77-.93,2,2,0,0,1,0-2.11,2,2,0,0,1,2-2.81c1.82.12,3.8.86,5.6.37A2.17,2.17,0,0,1,39.41,18.18Z"/><path fill="#23315e" d="M40.72,8.07H36.34a.57.57,0,0,0-.43.19l-3.2-5.21A.19.19,0,0,0,32.65,3a5,5,0,0,0-3.13-1.3h-.73V0H26.91V1.68H14.4V0H12.52V1.68H12A5.07,5.07,0,0,0,8.87,3L8.81,3,5.43,8.31A.56.56,0,0,0,5,8.07H.58A.58.58,0,0,0,0,8.65V11a.58.58,0,0,0,.58.58H3.14A9.17,9.17,0,0,0,.7,17.51v5.73a5.54,5.54,0,0,0,.88,3v2.6A2.25,2.25,0,0,0,3.8,31.12H6.5a2.25,2.25,0,0,0,2.22-2.27v-.43H32.59v.43a2.25,2.25,0,0,0,2.22,2.27h2.7a2.25,2.25,0,0,0,2.22-2.27v-2.6a5.46,5.46,0,0,0,.88-3V17.51a9.17,9.17,0,0,0-2.44-5.94h2.56a.58.58,0,0,0,.58-.58V8.65A.58.58,0,0,0,40.72,8.07ZM10.35,4.4A3.57,3.57,0,0,1,12,3.76H29.56a3.1,3.1,0,0,1,1.54.59l3.79,6.18H6.43ZM28.53,16.77v4.16h-1.2V16.77Zm-2.08,0v4.16h-1.2V16.77Zm-2.08,0v4.16h-1.2V16.77Zm-2.07,0v4.16H21.09V16.77Zm-2.08,0v4.16H19V16.77Zm-2.08,0v4.16h-1.2V16.77Zm-2.08,0v4.16H14.85V16.77Zm-2.08,0v4.16h-1.2V16.77ZM5.69,25.84c-3.54-1.21-1.82-3.56-1.82-3.56H8.08l2.8,3.56Zm5.61-4.91h-8V16.77h8Zm15.45,4.91H14.56a2.41,2.41,0,0,1-2.29-2.53H29A2.41,2.41,0,0,1,26.75,25.84Zm8.87,0H30.43l2.8-3.56h4.21S39.16,24.63,35.62,25.84Zm2.43-4.91H30V16.77h8Z"/></g></g></svg>