<svg xmlns="http://www.w3.org/2000/svg" viewBox="0 0 37.83 36.24">
  <g id="Layer_2" data-name="Layer 2">
    <g id="Layer_1-2" data-name="Layer 1">
      <path fill="#23315e" d="M17.49,1.25c1-1.63,1.86-1.64,2.75-.17a8.22,8.22,0,0,1,1.12,4.33c.06,5.26-.08,10.52-.13,15.77,0,2.09.14,4.18-.06,6.26a40.22,40.22,0,0,1-1.86,7.87c-.13.42-.33.93-.85.93s-.73-.55-.84-1a36.79,36.79,0,0,1-1.55-10.7c.19-6.18.15-12.37.24-18.56A9.78,9.78,0,0,1,17.49,1.25Z"/>
      <path fill="#23315e" d="M21.67,11.47c2.18,1.64,4.24,3.21,6.32,4.76,2.72,2,5.4,4.08,8.18,6,1.57,1.08,1.84,2.46,1.57,4.2L34,25c-3.92-1.49-7.84-3-11.77-4.47a.8.8,0,0,1-.63-.9C21.63,16.94,21.64,14.27,21.67,11.47Z"/>
      <path fill="#23315e" d="M15.93,11.71c0,2.87-.08,5.63-.1,8.39a.47.47,0,0,1-.36.52q-7.53,2.74-15,5.53c-.39.15-.44.06-.44-.33,0-2.55,0-2.53,2.09-4l12.53-9.17C15,12.32,15.44,12.05,15.93,11.71Z"/>
      <path fill="#d9a41e" d="M21.23,29.41c1.4,1,2.76,2.1,4.18,3.05a2,2,0,0,1,1,2c-.06.45.18,1.11-.1,1.32s-.85-.19-1.29-.33L20.6,34.13c-.37-.11-.49-.26-.38-.67C20.58,32.14,20.89,30.8,21.23,29.41Z"/>
      <path fill="#d9a41e" d="M10.85,35.65c0-.88,0-1.71,0-2.54,0-.18.14-.26.25-.34,1.48-1.1,3-2.19,4.44-3.3.32-.24.37-.12.43.19.24,1.17.5,2.34.75,3.5,0,.18.14.34-.15.44Z"/>
      <path fill="#d9a41e" d="M33.84,20.16c-.56-.42-1.05-.77-1.52-1.14-.24-.18-.26-1-.06-1.51A.53.53,0,0,1,33,17.2c.48.09.84.3.88.85A13.42,13.42,0,0,1,33.84,20.16Z"/>
      <path fill="#d9a41e" d="M5.51,18.93a7.76,7.76,0,0,1,0-1.75c0-.3.14-.57.51-.52s.88-.22,1.1.26a.7.7,0,0,1-.25,1C6.44,18.2,6,18.55,5.51,18.93Z"/>
    </g>
  </g>
</svg>