<svg xmlns="http://www.w3.org/2000/svg" viewBox="0 0 34.27 43.12">
  <g id="Layer_2" data-name="Layer 2">
    <g id="Layer_1-2" data-name="Layer 1">
      <path fill="#23315e"
            d="M26.08,0H8.19A8.19,8.19,0,0,0,0,8.19V28.75a8.19,8.19,0,0,0,8.19,8.19H26.08a8.19,8.19,0,0,0,8.19-8.19V8.19A8.19,8.19,0,0,0,26.08,0ZM6.7,31.05a2.39,2.39,0,1,1,2.39-2.39A2.39,2.39,0,0,1,6.7,31.05Zm8.94-14.49a2,2,0,0,1-2,2h-8a2,2,0,0,1-2-2V11.47a2,2,0,0,1,2-2h8.06a2,2,0,0,1,2,2ZM14.75,4.15a2.39,2.39,0,1,1,2.39,2.39A2.39,2.39,0,0,1,14.75,4.15Zm12.82,26.9A2.39,2.39,0,1,1,30,28.66,2.39,2.39,0,0,1,27.57,31.05Zm3.11-14.49a2,2,0,0,1-2,2h-8a2,2,0,0,1-2-2V11.47a2,2,0,0,1,2-2h8.07a2,2,0,0,1,2,2Z"/>
      <rect fill="#d9a41e" x="9.61" y="39.84" width="15.74" height="3.28"/>
    </g>
  </g>
</svg>