<svg xmlns="http://www.w3.org/2000/svg" viewBox="0 0 30.66 41.27">
  <g id="Layer_2" data-name="Layer 2">
    <g id="Layer_1-2" data-name="Layer 1">
      <rect fill="#d9a41e" x="1.49" y="1.76" width="26.61" height="10.42"/>
      <rect fill="#d9a41e" x="15.79" y="16.87" width="13.44" height="11.21"/>

      <g id="_9119_-_Travel_Visa" data-name="9119 - Travel Visa">
        <path fill="#23315e" d="M0,0V41.27H30.66V0ZM21.28,5.6a3,3,0,1,1,6,0v4.72a.85.85,0,1,1-1.69,0V8.59H23v1.73a.85.85,0,1,1-1.7,0l0-4.72ZM17,7.74A2.57,2.57,0,1,1,17,2.6h1.69a.86.86,0,0,1,.85.85.85.85,0,0,1-.85.84H17A.87.87,0,0,0,17,6a2.57,2.57,0,0,1,0,5.14h-1.7a.85.85,0,1,1,0-1.69H17a.87.87,0,0,0,0-1.74Zm-6-4.29a.85.85,0,1,1,1.7,0v6.87a.85.85,0,1,1-1.7,0Zm.87,14.62A3.45,3.45,0,0,1,11,20.43a5.1,5.1,0,0,1,2.64,4.47v2.62a.86.86,0,0,1-.85.85H4.26a.86.86,0,0,1-.85-.85V24.9a5.1,5.1,0,0,1,2.64-4.47,3.42,3.42,0,1,1,5.87-2.36ZM3.1,2.66a.86.86,0,0,1,1.1.5L6,7.88,7.7,3.16a.85.85,0,1,1,1.6.6L6.74,10.63a.84.84,0,0,1-.79.56.83.83,0,0,1-.79-.56L2.6,3.76A.86.86,0,0,1,3.1,2.66Zm25,35.17a.85.85,0,0,1-.85.84H3.39a.85.85,0,0,1-.85-.84V32.66a.85.85,0,0,1,.85-.84H27.23a.85.85,0,0,1,.85.84v5.17Zm0-10.33H17a.85.85,0,1,1,0-1.69H28.1a.85.85,0,1,1,0,1.69Zm0-3.43H17a.85.85,0,1,1,0-1.69H28.1a.85.85,0,1,1,0,1.69Zm0-4.29H17a.85.85,0,0,1,0-1.7H28.1a.85.85,0,1,1,0,1.7Z"/>
        <path fill="#23315e" d="M25.54,5.6A1.27,1.27,0,1,0,23,5.6V6.89h2.56l0-1.29Z"/>
        <path fill="#23315e" d="M5.1,24.9v1.77h6.82V24.9a3.41,3.41,0,0,0-6.82,0Z"/>
        <ellipse fill="#23315e" cx="8.51" cy="18.07" rx="1.69" ry="1.73"/>
        <rect fill="#23315e" x="4.26" y="33.53" width="22.13" height="3.45"/>
      </g>
    </g>
  </g>
</svg>