<svg xmlns="http://www.w3.org/2000/svg" xmlns:xlink="http://www.w3.org/1999/xlink" viewBox="0 0 50 50"><path d="M5 4C4.449219 4 4 4.449219 4 5L4 45C4 45.550781 4.449219 46 5 46L45 46C45.550781 46 46 45.550781 46 45L46 5C46 4.449219 45.550781 4 45 4 Z M 14 12C15.105469 12 16 12.894531 16 14C16 15.105469 15.105469 16 14 16C12.894531 16 12 15.105469 12 14C12 12.894531 12.894531 12 14 12 Z M 21 13L38 13C38.550781 13 39 13.445313 39 14C39 14.554688 38.550781 15 38 15L21 15C20.449219 15 20 14.554688 20 14C20 13.445313 20.449219 13 21 13 Z M 14 23C15.105469 23 16 23.894531 16 25C16 26.105469 15.105469 27 14 27C12.894531 27 12 26.105469 12 25C12 23.894531 12.894531 23 14 23 Z M 21 24L38 24C38.550781 24 39 24.445313 39 25C39 25.554688 38.550781 26 38 26L21 26C20.449219 26 20 25.554688 20 25C20 24.445313 20.449219 24 21 24 Z M 14 34C15.105469 34 16 34.894531 16 36C16 37.105469 15.105469 38 14 38C12.894531 38 12 37.105469 12 36C12 34.894531 12.894531 34 14 34 Z M 21 35L38 35C38.550781 35 39 35.445313 39 36C39 36.554688 38.550781 37 38 37L21 37C20.449219 37 20 36.554688 20 36C20 35.445313 20.449219 35 21 35Z"/></svg>