<svg xmlns="http://www.w3.org/2000/svg" viewBox="0 0 30.5 38.43">
  <g id="Layer_2" data-name="Layer 2">
    <g id="Layer_1-2" data-name="Layer 1">
      <rect fill="#d9a41e" x="5.54" y="5.12" width="20.38" height="5.42"/>
      <rect fill="#d9a41e" x="8.41" y="0.44" width="13.22" height="3.01"/>

      <path fill="#ffffff" d="M7.29,0V4.06H23.21V0Zm4.45,3a.25.25,0,1,1-.49,0V2.32h-.92V3a.25.25,0,0,1-.5,0V1.19a.25.25,0,1,1,.5,0v.67h.92V1.19a.25.25,0,1,1,.49,0Zm2.85-.9a1.2,1.2,0,0,1-2.4,0h0a1.2,1.2,0,0,1,2.4,0Zm1.85-.67H16V3a.25.25,0,1,1-.5,0V1.42H15a.22.22,0,0,1-.22-.23A.23.23,0,0,1,15,1h1.46a.23.23,0,0,1,.23.23A.23.23,0,0,1,16.44,1.42Zm2.11,1.8H17.28A.25.25,0,0,1,17,3V1.21A.25.25,0,0,1,17.28,1h1.25a.23.23,0,1,1,0,.45h-1v.45h.86a.22.22,0,0,1,.22.23.22.22,0,0,1-.22.22h-.86v.47h1a.22.22,0,0,1,.22.22A.22.22,0,0,1,18.55,3.22Zm2.06,0H19.44A.24.24,0,0,1,19.2,3V1.19a.25.25,0,1,1,.49,0V2.77h.92a.23.23,0,1,1,0,.45Z"/>
      <path fill="#ffffff" d="M14.07,2.09h0a.67.67,0,0,1-.68.7.68.68,0,0,1-.68-.71h0a.68.68,0,0,1,.68-.71A.69.69,0,0,1,14.07,2.09Z"/>
      <path fill="#ffffff" d="M30.11,37.66H27.06V5.42a.58.58,0,0,0-.59-.59H4a.59.59,0,0,0-.6.59V37.66H.38a.39.39,0,0,0,0,.77H30.11a.39.39,0,1,0,0-.77ZM20.86,7.85h1.23a.07.07,0,0,0,.06,0l.38-1.17a.07.07,0,0,1,.13,0L23,7.81a.08.08,0,0,0,.07,0h1.23a.07.07,0,0,1,0,.13l-1,.72a.08.08,0,0,0,0,.08l.38,1.16a.07.07,0,0,1-.11.08l-1-.72a.06.06,0,0,0-.08,0l-1,.72a.07.07,0,0,1-.11-.08l.38-1.16a.07.07,0,0,0,0-.08l-1-.72A.07.07,0,0,1,20.86,7.85Zm-7.36,0h1.23a.06.06,0,0,0,.06,0l.38-1.17a.07.07,0,0,1,.13,0l.38,1.17a.08.08,0,0,0,.07,0H17A.06.06,0,0,1,17,8l-1,.72a.08.08,0,0,0,0,.08l.37,1.17a.06.06,0,0,1-.1.07l-1-.72a.07.07,0,0,0-.09,0l-1,.72a.06.06,0,0,1-.1-.07l.38-1.17a.11.11,0,0,0,0-.08l-1-.72A.06.06,0,0,1,13.5,7.84Zm-.58,4.31a.39.39,0,0,1,.39-.38h3.88a.38.38,0,0,1,.38.38V16a.38.38,0,0,1-.38.38H13.31a.39.39,0,0,1-.39-.38Zm0,6.67a.39.39,0,0,1,.39-.39h3.88a.38.38,0,0,1,.38.39V22.7a.38.38,0,0,1-.38.38H13.31a.39.39,0,0,1-.39-.38Zm-6.78-11H7.36a.08.08,0,0,0,.07-.05l.38-1.16a.07.07,0,0,1,.13,0l.38,1.16a.06.06,0,0,0,.06.05H9.61a.07.07,0,0,1,0,.12l-1,.73a.05.05,0,0,0,0,.07L9,9.91A.07.07,0,0,1,8.9,10l-1-.72a.06.06,0,0,0-.08,0l-1,.72a.07.07,0,0,1-.11-.08l.38-1.17a.06.06,0,0,0,0-.07l-1-.73S6.07,7.82,6.14,7.82Zm4.05,21.54a.38.38,0,0,1-.38.38H5.93a.39.39,0,0,1-.39-.38V25.48a.39.39,0,0,1,.39-.38H9.81a.38.38,0,0,1,.38.38Zm0-6.66a.38.38,0,0,1-.38.38H5.93a.39.39,0,0,1-.39-.38V18.82a.39.39,0,0,1,.39-.39H9.81a.38.38,0,0,1,.38.39Zm0-6.66a.38.38,0,0,1-.38.38H5.93A.39.39,0,0,1,5.54,16V12.15a.39.39,0,0,1,.39-.38H9.81a.38.38,0,0,1,.38.38Zm8,18.71a.39.39,0,0,1-.39.38H12.68a.38.38,0,0,1-.39-.38V26.39a1.29,1.29,0,0,1,1.29-1.29h3.34a1.29,1.29,0,0,1,1.29,1.29ZM25,29.36a.38.38,0,0,1-.38.38H20.69a.38.38,0,0,1-.38-.38V25.48a.38.38,0,0,1,.38-.38h3.88a.38.38,0,0,1,.38.38Zm0-6.66a.38.38,0,0,1-.38.38H20.69a.38.38,0,0,1-.38-.38V18.82a.38.38,0,0,1,.38-.39h3.88a.38.38,0,0,1,.38.39ZM25,16a.38.38,0,0,1-.38.38H20.69a.38.38,0,0,1-.38-.38V12.15a.38.38,0,0,1,.38-.38h3.88a.38.38,0,0,1,.38.38Z"/>
    </g>
  </g>
</svg>