<svg xmlns="http://www.w3.org/2000/svg" viewBox="0 0 27.18 40.76">
  <g id="Layer_2" data-name="Layer 2">
    <g id="Layer_1-2" data-name="Layer 1">
      <rect fill="#d9a41e" x="6.86" y="18.18" width="13.46" height="19.41"
            transform="translate(-11.76 10) rotate(-28.81)"/>
      <path fill="#ffffff" fill-rule="evenodd"
            d="M7.64,13.37a1.32,1.32,0,0,0-1.24,0,1.16,1.16,0,0,1-.93.08.94.94,0,0,1-.39-.23,1.29,1.29,0,0,1,.39-.93L5.78,12l.44,0a1.29,1.29,0,0,1,1.29.67,1.2,1.2,0,0,1,.13.8ZM5.1,4.61l2.38.68a6.66,6.66,0,0,1,11.2,7.2L20,14.77A9,9,0,0,0,13,0,9,9,0,0,0,5.1,4.61Z"/>
      <path fill="#ffffff" fill-rule="evenodd"
            d="M17.44,15.29l0,0L15,11,6.32,8.55c0,.16,0,.31,0,.47a7,7,0,0,0,.23,1.79,3.65,3.65,0,0,1,3.52,1.66l0,0,.08.08,0,.06,0,0a3.31,3.31,0,0,1,.28.61,5.15,5.15,0,0,1,.16.62V14a4.19,4.19,0,0,1,0,.5,3.41,3.41,0,0,1-.45,1.73l0,0a3.72,3.72,0,0,1-.59.78,3.55,3.55,0,0,1-.79.61,3.59,3.59,0,0,1-1.84.5A3.78,3.78,0,0,1,3.78,16.3a3.68,3.68,0,0,1,.6-4.46,8.66,8.66,0,0,1-.39-4L2.85,7.54,0,19.64,12.2,40.76,13.55,40h0l13.6-7.85ZM12.5,37.41c-.46.27-1.07.14-1.51-.6s-.28-1.39.21-1.68,1.09-.11,1.5.6S13,37.13,12.5,37.41ZM13.39,39l-.09-5.09.32-.19.08,5.1Zm2.42-1.46c-.46.27-1.07.14-1.51-.6s-.28-1.39.21-1.68,1.08-.11,1.5.6S16.29,37.24,15.81,37.52Zm2.66-3.21a1.24,1.24,0,0,1-.6.15,1.19,1.19,0,0,1-1-.6l-.26-.46a2.86,2.86,0,0,1-.83.1,3.32,3.32,0,0,1-2.91-1.87A1.22,1.22,0,0,1,13.28,30a1.2,1.2,0,0,1,1.64.44c.46.83.9.73,1.27.54.57-.28.93-1,.8-1.29l0-.05c-.33-.83-2-.57-2.15-.52-3.05.54-4.09-.78-4.43-2a3.63,3.63,0,0,1,.78-3.52l-.29-.49a1.21,1.21,0,0,1,.45-1.64,1.2,1.2,0,0,1,1.63.44l.34.63a3.36,3.36,0,0,1,3.45,1.84,1.19,1.19,0,1,1-2.1,1.11,1,1,0,0,0-1.3-.51l-.08,0a1.12,1.12,0,0,0-.61,1,1.62,1.62,0,0,0,.07.47c0,.18.15.54,1.68.28,1.79-.3,4,0,4.77,1.95a3.23,3.23,0,0,1-.6,3.34l.34.59A1.21,1.21,0,0,1,18.47,34.31Zm-7.11,1.13c-.31.19-.26.65,0,1.12s.66.73,1,.54.27-.63,0-1.12S11.7,35.24,11.36,35.44Zm4.27.65c-.27-.45-.62-.75-1-.54s-.27.65,0,1.12.66.72,1,.54S15.92,36.58,15.63,36.09Z"/>
    </g>
  </g>
</svg>